<mxfile host="app.diagrams.net" modified="2021-07-08T21:28:53.044Z" agent="5.0 (Macintosh; Intel Mac OS X 10_15_7) AppleWebKit/605.1.15 (KHTML, like Gecko) Version/14.1.1 Safari/605.1.15" etag="aIE3bG_oLd0ICQ3LeZMF" version="14.1.8" type="github">
  <diagram id="YHkOCsuuGXmg0DVfGalU" name="Page-1">
    <mxGraphModel dx="1426" dy="842" grid="0" gridSize="10" guides="1" tooltips="1" connect="1" arrows="1" fold="1" page="1" pageScale="1" pageWidth="850" pageHeight="1100" math="0" shadow="0">
      <root>
        <mxCell id="0" />
        <mxCell id="1" parent="0" />
        <mxCell id="R3b0mllepqlJtRpHBDsf-18" value="Occam&lt;br&gt;&lt;br&gt;EA&lt;br&gt;+&lt;br&gt;WFM, UV&lt;br&gt;+EO workflow" style="rounded=1;whiteSpace=wrap;html=1;fillColor=#f5f5f5;strokeColor=#666666;fontColor=#333333;" vertex="1" parent="1">
          <mxGeometry x="450" y="80" width="120" height="290" as="geometry" />
        </mxCell>
        <mxCell id="R3b0mllepqlJtRpHBDsf-17" value="Occam&lt;br&gt;&lt;br&gt;EA&lt;br&gt;+&lt;br&gt;WFM, UV&lt;br&gt;+EO workflow" style="rounded=1;whiteSpace=wrap;html=1;fillColor=#f5f5f5;strokeColor=#666666;fontColor=#333333;" vertex="1" parent="1">
          <mxGeometry x="325" y="80" width="120" height="290" as="geometry" />
        </mxCell>
        <mxCell id="R3b0mllepqlJtRpHBDsf-1" value="&lt;font style=&quot;font-size: 24px&quot;&gt;Platform&lt;/font&gt;&lt;br&gt;&lt;br&gt;EHS clusters, dev/test/stage/prod&lt;br&gt;EA DICOM store, EDA EMR store&lt;br&gt;IDAM&lt;br&gt;CI/CD&lt;br&gt;EO deploy, EO multi-tenancy&lt;br&gt;Cloud and Site Connectors&lt;br&gt;Solutions Catalog&lt;br&gt;Subscriptions&amp;nbsp;&amp;nbsp;" style="rounded=0;whiteSpace=wrap;html=1;fillColor=#d5e8d4;strokeColor=#82b366;" vertex="1" parent="1">
          <mxGeometry x="200" y="400" width="400" height="160" as="geometry" />
        </mxCell>
        <mxCell id="R3b0mllepqlJtRpHBDsf-7" value="Occam&lt;br&gt;&lt;br&gt;EA&lt;br&gt;+&lt;br&gt;WFM, UV&lt;br&gt;+EO workflow" style="rounded=1;whiteSpace=wrap;html=1;fillColor=#f5f5f5;strokeColor=#666666;fontColor=#333333;" vertex="1" parent="1">
          <mxGeometry x="200" y="80" width="120" height="290" as="geometry" />
        </mxCell>
        <mxCell id="R3b0mllepqlJtRpHBDsf-8" value="&lt;b&gt;Pacific&lt;/b&gt;&lt;br&gt;&lt;br&gt;EO&lt;br&gt;+&lt;br&gt;WFM, UV&lt;br&gt;+EO workflow&lt;br&gt;&lt;br&gt;+CC,SC&lt;br&gt;&lt;br&gt;&lt;br&gt;&lt;br&gt;" style="rounded=1;whiteSpace=wrap;html=1;fillColor=#f5f5f5;strokeColor=#666666;fontColor=#333333;" vertex="1" parent="1">
          <mxGeometry x="340" y="100" width="120" height="290" as="geometry" />
        </mxCell>
        <mxCell id="R3b0mllepqlJtRpHBDsf-9" value="Pharma&lt;br&gt;&lt;br&gt;EO&lt;br&gt;+&lt;br&gt;EDA&lt;br&gt;&lt;br&gt;&lt;br&gt;&lt;br&gt;&lt;br&gt;&lt;br&gt;&lt;br&gt;&lt;br&gt;&lt;br&gt;" style="rounded=1;whiteSpace=wrap;html=1;fillColor=#f5f5f5;strokeColor=#666666;fontColor=#333333;" vertex="1" parent="1">
          <mxGeometry x="460" y="100" width="120" height="290" as="geometry" />
        </mxCell>
        <mxCell id="R3b0mllepqlJtRpHBDsf-10" value="&lt;b&gt;Occam&lt;br&gt;&lt;/b&gt;&lt;br&gt;EA&lt;br&gt;+&lt;br&gt;WFM, UV&lt;br&gt;+EO workflow&lt;br&gt;&lt;br&gt;&lt;br&gt;&lt;br&gt;&lt;br&gt;&lt;br&gt;&lt;br&gt;&lt;br&gt;" style="rounded=1;whiteSpace=wrap;html=1;fillColor=#f5f5f5;strokeColor=#666666;fontColor=#333333;" vertex="1" parent="1">
          <mxGeometry x="220" y="100" width="120" height="290" as="geometry" />
        </mxCell>
        <mxCell id="R3b0mllepqlJtRpHBDsf-2" value="" style="rounded=1;whiteSpace=wrap;html=1;fillColor=#dae8fc;strokeColor=#6c8ebf;" vertex="1" parent="1">
          <mxGeometry x="240" y="270" width="290" height="80" as="geometry" />
        </mxCell>
        <mxCell id="R3b0mllepqlJtRpHBDsf-14" value="" style="rounded=1;whiteSpace=wrap;html=1;fillColor=#dae8fc;strokeColor=#6c8ebf;" vertex="1" parent="1">
          <mxGeometry x="250" y="280" width="290" height="80" as="geometry" />
        </mxCell>
        <mxCell id="R3b0mllepqlJtRpHBDsf-15" value="&lt;div style=&quot;box-sizing: border-box ; font-family: &amp;#34;segoe ui&amp;#34; , sans-serif&quot;&gt;&lt;font style=&quot;font-size: 24px&quot;&gt;Solutions&lt;/font&gt;&lt;/div&gt;&lt;div style=&quot;box-sizing: border-box ; font-family: &amp;#34;segoe ui&amp;#34; , sans-serif ; font-size: 14px&quot;&gt;&lt;br&gt;&lt;/div&gt;&lt;div style=&quot;box-sizing: border-box ; font-family: &amp;#34;segoe ui&amp;#34; , sans-serif ; font-size: 14px&quot;&gt;Riverain, Icometrics, Iblab, Qureai, Lunit, 1 1P&lt;/div&gt;&lt;div style=&quot;box-sizing: border-box ; font-family: &amp;#34;segoe ui&amp;#34; , sans-serif ; font-size: 14px&quot;&gt;deployment, elasticity, publishing&lt;/div&gt;" style="rounded=1;whiteSpace=wrap;html=1;fillColor=#dae8fc;strokeColor=#6c8ebf;" vertex="1" parent="1">
          <mxGeometry x="260" y="290" width="290" height="80" as="geometry" />
        </mxCell>
        <mxCell id="R3b0mllepqlJtRpHBDsf-16" value="multi-tenant" style="text;html=1;strokeColor=none;fillColor=none;align=center;verticalAlign=middle;whiteSpace=wrap;rounded=0;" vertex="1" parent="1">
          <mxGeometry x="220" y="80" width="80" height="20" as="geometry" />
        </mxCell>
        <mxCell id="R3b0mllepqlJtRpHBDsf-19" value="multi-tenant" style="text;html=1;strokeColor=none;fillColor=none;align=center;verticalAlign=middle;whiteSpace=wrap;rounded=0;" vertex="1" parent="1">
          <mxGeometry x="340" y="80" width="80" height="20" as="geometry" />
        </mxCell>
        <mxCell id="R3b0mllepqlJtRpHBDsf-20" value="multi-tenant" style="text;html=1;strokeColor=none;fillColor=none;align=center;verticalAlign=middle;whiteSpace=wrap;rounded=0;" vertex="1" parent="1">
          <mxGeometry x="470" y="80" width="80" height="20" as="geometry" />
        </mxCell>
        <mxCell id="R3b0mllepqlJtRpHBDsf-22" value="single-tenant" style="text;html=1;strokeColor=none;fillColor=none;align=center;verticalAlign=middle;whiteSpace=wrap;rounded=0;" vertex="1" parent="1">
          <mxGeometry x="235" y="100" width="80" height="20" as="geometry" />
        </mxCell>
        <mxCell id="R3b0mllepqlJtRpHBDsf-23" value="single-tenant" style="text;html=1;strokeColor=none;fillColor=none;align=center;verticalAlign=middle;whiteSpace=wrap;rounded=0;" vertex="1" parent="1">
          <mxGeometry x="355" y="100" width="80" height="20" as="geometry" />
        </mxCell>
        <mxCell id="R3b0mllepqlJtRpHBDsf-24" value="single-tenant" style="text;html=1;strokeColor=none;fillColor=none;align=center;verticalAlign=middle;whiteSpace=wrap;rounded=0;" vertex="1" parent="1">
          <mxGeometry x="485" y="100" width="80" height="20" as="geometry" />
        </mxCell>
        <mxCell id="R3b0mllepqlJtRpHBDsf-25" value="&lt;font style=&quot;font-size: 24px&quot;&gt;Workloads&lt;/font&gt;" style="text;html=1;strokeColor=none;fillColor=none;align=center;verticalAlign=middle;whiteSpace=wrap;rounded=0;" vertex="1" parent="1">
          <mxGeometry x="345" y="50" width="80" height="20" as="geometry" />
        </mxCell>
      </root>
    </mxGraphModel>
  </diagram>
</mxfile>
